# xmcd
#
# Track frame offsets: 
#        183
#        14178
#        27780
#        44193
#        59983
#        74588
#        93103
#        108130
#        125243
#        140680
#
# Disc length: 2066 seconds
#
# Revision: 2
# Processed by: cddbd v1.5.2PL0 Copyright (c) Steve Scherf et al.
# Submitted via: ExactAudioCopy v1.1
#
DISCID=a008100a
DTITLE=Crystal Gayle - Nobody's Angel
DYEAR=1988
DGENRE=Country
TTITLE0=Nobdy's Angel
TTITLE1=Prove Me Wrong
TTITLE2=Old Habits Die Hard
TTITLE3=Tennessee Nights
TTITLE4=When Love Is New
TTITLE5=Hopeless Romantic
TTITLE6=Love May Find You
TTITLE7=Love Found Me (Duet With Dennis Lacorriere)
TTITLE8=Heat
TTITLE9=After The Best
EXTD=
EXTT0=
EXTT1=
EXTT2=
EXTT3=
EXTT4=
EXTT5=
EXTT6=
EXTT7=
EXTT8=
EXTT9=
PLAYORDER=
